
<region>
sample=..\Samples\big_little_pluck_b1_f_rr5.wav
lokey=35
hikey=35
seq_position=5
pitch_keycenter=35
volume=2

<region>
sample=..\Samples\big_little_pluck_b1_f_rr4.wav
lokey=35
hikey=35
seq_position=4
pitch_keycenter=35
volume=2

<region>
sample=..\Samples\big_little_pluck_b1_f_rr3.wav
lokey=35
hikey=35
seq_position=3
pitch_keycenter=35
volume=2

<region>
sample=..\Samples\big_little_pluck_b1_f_rr2.wav
lokey=35
hikey=35
seq_position=2
pitch_keycenter=35
volume=2

<region>
sample=..\Samples\big_little_pluck_b1_f_rr1.wav
lokey=35
hikey=35
pitch_keycenter=35
volume=2

<region>
sample=..\Samples\big_little_pluck_c2_f_rr5.wav
lokey=36
hikey=36
seq_position=5
pitch_keycenter=36
volume=2

<region>
sample=..\Samples\big_little_pluck_c2_f_rr4.wav
lokey=36
hikey=36
seq_position=4
pitch_keycenter=36
volume=2

<region>
sample=..\Samples\big_little_pluck_c2_f_rr3.wav
lokey=36
hikey=36
seq_position=3
pitch_keycenter=36
volume=2

<region>
sample=..\Samples\big_little_pluck_c2_f_rr2.wav
lokey=36
hikey=36
seq_position=2
pitch_keycenter=36
volume=2

<region>
sample=..\Samples\big_little_pluck_c2_f_rr1.wav
lokey=36
hikey=36
pitch_keycenter=36
volume=2

<region>
sample=..\Samples\big_little_pluck_db2_f_rr5.wav
lokey=37
hikey=37
seq_position=5
pitch_keycenter=37
volume=2

<region>
sample=..\Samples\big_little_pluck_db2_f_rr4.wav
lokey=37
hikey=37
seq_position=4
pitch_keycenter=37
volume=2

<region>
sample=..\Samples\big_little_pluck_db2_f_rr3.wav
lokey=37
hikey=37
seq_position=3
pitch_keycenter=37
volume=2

<region>
sample=..\Samples\big_little_pluck_db2_f_rr2.wav
lokey=37
hikey=37
seq_position=2
pitch_keycenter=37
volume=2

<region>
sample=..\Samples\big_little_pluck_db2_f_rr1.wav
lokey=37
hikey=37
pitch_keycenter=37
volume=2

<region>
sample=..\Samples\big_little_pluck_d2_f_rr5.wav
lokey=38
hikey=38
seq_position=5
pitch_keycenter=38
volume=2

<region>
sample=..\Samples\big_little_pluck_d2_f_rr4.wav
lokey=38
hikey=38
seq_position=4
pitch_keycenter=38
volume=2

<region>
sample=..\Samples\big_little_pluck_d2_f_rr3.wav
lokey=38
hikey=38
seq_position=3
pitch_keycenter=38
volume=2

<region>
sample=..\Samples\big_little_pluck_d2_f_rr2.wav
lokey=38
hikey=38
seq_position=2
pitch_keycenter=38
volume=2

<region>
sample=..\Samples\big_little_pluck_d2_f_rr1.wav
lokey=38
hikey=38
pitch_keycenter=38
volume=2

<region>
sample=..\Samples\big_little_pluck_eb2_f_rr5.wav
lokey=39
hikey=39
seq_position=5
pitch_keycenter=39
volume=2

<region>
sample=..\Samples\big_little_pluck_eb2_f_rr4.wav
lokey=39
hikey=39
seq_position=4
pitch_keycenter=39
volume=2

<region>
sample=..\Samples\big_little_pluck_eb2_f_rr3.wav
lokey=39
hikey=39
seq_position=3
pitch_keycenter=39
volume=2

<region>
sample=..\Samples\big_little_pluck_eb2_f_rr2.wav
lokey=39
hikey=39
seq_position=2
pitch_keycenter=39
volume=2

<region>
sample=..\Samples\big_little_pluck_eb2_f_rr1.wav
lokey=39
hikey=39
pitch_keycenter=39
volume=2

<region>
sample=..\Samples\big_little_pluck_e2_f_rr5.wav
lokey=40
hikey=40
seq_position=5
pitch_keycenter=40
volume=2

<region>
sample=..\Samples\big_little_pluck_e2_f_rr4.wav
lokey=40
hikey=40
seq_position=4
pitch_keycenter=40
volume=2

<region>
sample=..\Samples\big_little_pluck_e2_f_rr3.wav
lokey=40
hikey=40
seq_position=3
pitch_keycenter=40
volume=2

<region>
sample=..\Samples\big_little_pluck_e2_f_rr2.wav
lokey=40
hikey=40
seq_position=2
pitch_keycenter=40
volume=2

<region>
sample=..\Samples\big_little_pluck_e2_f_rr1.wav
lokey=40
hikey=40
pitch_keycenter=40
volume=2

<region>
sample=..\Samples\big_little_pluck_f2_f_rr5.wav
lokey=41
hikey=41
seq_position=5
pitch_keycenter=41
volume=2

<region>
sample=..\Samples\big_little_pluck_f2_f_rr4.wav
lokey=41
hikey=41
seq_position=4
pitch_keycenter=41
volume=2

<region>
sample=..\Samples\big_little_pluck_f2_f_rr3.wav
lokey=41
hikey=41
seq_position=3
pitch_keycenter=41
volume=2

<region>
sample=..\Samples\big_little_pluck_f2_f_rr2.wav
lokey=41
hikey=41
seq_position=2
pitch_keycenter=41
volume=2

<region>
sample=..\Samples\big_little_pluck_f2_f_rr1.wav
lokey=41
hikey=41
pitch_keycenter=41
volume=2

<region>
sample=..\Samples\big_little_pluck_gb2_f_rr5.wav
lokey=42
hikey=42
seq_position=5
pitch_keycenter=42
volume=2

<region>
sample=..\Samples\big_little_pluck_gb2_f_rr4.wav
lokey=42
hikey=42
seq_position=4
pitch_keycenter=42
volume=2

<region>
sample=..\Samples\big_little_pluck_gb2_f_rr3.wav
lokey=42
hikey=42
seq_position=3
pitch_keycenter=42
volume=2

<region>
sample=..\Samples\big_little_pluck_gb2_f_rr2.wav
lokey=42
hikey=42
seq_position=2
pitch_keycenter=42
volume=2

<region>
sample=..\Samples\big_little_pluck_gb2_f_rr1.wav
lokey=42
hikey=42
pitch_keycenter=42
volume=2

<region>
sample=..\Samples\big_little_pluck_g2_f_rr5.wav
lokey=43
hikey=43
seq_position=5
pitch_keycenter=43
volume=2

<region>
sample=..\Samples\big_little_pluck_g2_f_rr4.wav
lokey=43
hikey=43
seq_position=4
pitch_keycenter=43
volume=2

<region>
sample=..\Samples\big_little_pluck_g2_f_rr3.wav
lokey=43
hikey=43
seq_position=3
pitch_keycenter=43
volume=2

<region>
sample=..\Samples\big_little_pluck_g2_f_rr2.wav
lokey=43
hikey=43
seq_position=2
pitch_keycenter=43
volume=2

<region>
sample=..\Samples\big_little_pluck_g2_f_rr1.wav
lokey=43
hikey=43
pitch_keycenter=43
volume=2

<region>
sample=..\Samples\big_little_pluck_ab2_f_rr5.wav
lokey=44
hikey=44
seq_position=5
pitch_keycenter=44
volume=2

<region>
sample=..\Samples\big_little_pluck_ab2_f_rr4.wav
lokey=44
hikey=44
seq_position=4
pitch_keycenter=44
volume=2

<region>
sample=..\Samples\big_little_pluck_ab2_f_rr3.wav
lokey=44
hikey=44
seq_position=3
pitch_keycenter=44
volume=2

<region>
sample=..\Samples\big_little_pluck_ab2_f_rr2.wav
lokey=44
hikey=44
seq_position=2
pitch_keycenter=44
volume=2

<region>
sample=..\Samples\big_little_pluck_ab2_f_rr1.wav
lokey=44
hikey=44
pitch_keycenter=44
volume=2

<region>
sample=..\Samples\big_little_pluck_a2_f_rr5.wav
lokey=45
hikey=45
seq_position=5
pitch_keycenter=45
volume=2

<region>
sample=..\Samples\big_little_pluck_a2_f_rr4.wav
lokey=45
hikey=45
seq_position=4
pitch_keycenter=45
volume=2

<region>
sample=..\Samples\big_little_pluck_a2_f_rr3.wav
lokey=45
hikey=45
seq_position=3
pitch_keycenter=45
volume=2

<region>
sample=..\Samples\big_little_pluck_a2_f_rr2.wav
lokey=45
hikey=45
seq_position=2
pitch_keycenter=45
volume=2

<region>
sample=..\Samples\big_little_pluck_a2_f_rr1.wav
lokey=45
hikey=45
pitch_keycenter=45
volume=2

<region>
sample=..\Samples\big_little_pluck_bb2_f_rr5.wav
lokey=46
hikey=46
seq_position=5
pitch_keycenter=46
volume=2

<region>
sample=..\Samples\big_little_pluck_bb2_f_rr4.wav
lokey=46
hikey=46
seq_position=4
pitch_keycenter=46
volume=2

<region>
sample=..\Samples\big_little_pluck_bb2_f_rr3.wav
lokey=46
hikey=46
seq_position=3
pitch_keycenter=46
volume=2

<region>
sample=..\Samples\big_little_pluck_bb2_f_rr2.wav
lokey=46
hikey=46
seq_position=2
pitch_keycenter=46
volume=2

<region>
sample=..\Samples\big_little_pluck_bb2_f_rr1.wav
lokey=46
hikey=46
pitch_keycenter=46
volume=2

<region>
sample=..\Samples\big_little_pluck_b2_f_rr5.wav
lokey=47
hikey=47
seq_position=5
pitch_keycenter=47
volume=2

<region>
sample=..\Samples\big_little_pluck_b2_f_rr4.wav
lokey=47
hikey=47
seq_position=4
pitch_keycenter=47
volume=2

<region>
sample=..\Samples\big_little_pluck_b2_f_rr3.wav
lokey=47
hikey=47
seq_position=3
pitch_keycenter=47
volume=2

<region>
sample=..\Samples\big_little_pluck_b2_f_rr2.wav
lokey=47
hikey=47
seq_position=2
pitch_keycenter=47
volume=2

<region>
sample=..\Samples\big_little_pluck_b2_f_rr1.wav
lokey=47
hikey=47
pitch_keycenter=47
volume=2

<region>
sample=..\Samples\big_little_pluck_c3_f_rr5.wav
lokey=48
hikey=48
seq_position=5
pitch_keycenter=48
volume=6

<region>
sample=..\Samples\big_little_pluck_c3_f_rr4.wav
lokey=48
hikey=48
seq_position=4
pitch_keycenter=48
volume=6

<region>
sample=..\Samples\big_little_pluck_c3_f_rr3.wav
lokey=48
hikey=48
seq_position=3
pitch_keycenter=48
volume=6

<region>
sample=..\Samples\big_little_pluck_c3_f_rr2.wav
lokey=48
hikey=48
seq_position=2
pitch_keycenter=48
volume=6

<region>
sample=..\Samples\big_little_pluck_c3_f_rr1.wav
lokey=48
hikey=48
pitch_keycenter=48
volume=6

<region>
sample=..\Samples\big_little_pluck_db3_f_rr5.wav
lokey=49
hikey=49
seq_position=5
pitch_keycenter=49
volume=6

<region>
sample=..\Samples\big_little_pluck_db3_f_rr4.wav
lokey=49
hikey=49
seq_position=4
pitch_keycenter=49
volume=6

<region>
sample=..\Samples\big_little_pluck_db3_f_rr3.wav
lokey=49
hikey=49
seq_position=3
pitch_keycenter=49
volume=6

<region>
sample=..\Samples\big_little_pluck_db3_f_rr2.wav
lokey=49
hikey=49
seq_position=2
pitch_keycenter=49
volume=6

<region>
sample=..\Samples\big_little_pluck_db3_f_rr1.wav
lokey=49
hikey=49
pitch_keycenter=49
volume=6

<region>
sample=..\Samples\big_little_pluck_d3_f_rr5.wav
lokey=50
hikey=50
seq_position=5
pitch_keycenter=50
volume=6

<region>
sample=..\Samples\big_little_pluck_d3_f_rr4.wav
lokey=50
hikey=50
seq_position=4
pitch_keycenter=50
volume=6

<region>
sample=..\Samples\big_little_pluck_d3_f_rr3.wav
lokey=50
hikey=50
seq_position=3
pitch_keycenter=50
volume=6

<region>
sample=..\Samples\big_little_pluck_d3_f_rr2.wav
lokey=50
hikey=50
seq_position=2
pitch_keycenter=50
volume=6

<region>
sample=..\Samples\big_little_pluck_d3_f_rr1.wav
lokey=50
hikey=50
pitch_keycenter=50
volume=6

<region>
sample=..\Samples\big_little_pluck_eb3_f_rr5.wav
lokey=51
hikey=51
seq_position=5
pitch_keycenter=51
volume=6

<region>
sample=..\Samples\big_little_pluck_eb3_f_rr4.wav
lokey=51
hikey=51
seq_position=4
pitch_keycenter=51
volume=6

<region>
sample=..\Samples\big_little_pluck_eb3_f_rr3.wav
lokey=51
hikey=51
seq_position=3
pitch_keycenter=51
volume=6

<region>
sample=..\Samples\big_little_pluck_eb3_f_rr2.wav
lokey=51
hikey=51
seq_position=2
pitch_keycenter=51
volume=6

<region>
sample=..\Samples\big_little_pluck_eb3_f_rr1.wav
lokey=51
hikey=51
pitch_keycenter=51
volume=6

<region>
sample=..\Samples\big_little_pluck_e3_f_rr5.wav
lokey=52
hikey=52
seq_position=5
pitch_keycenter=52
volume=6

<region>
sample=..\Samples\big_little_pluck_e3_f_rr4.wav
lokey=52
hikey=52
seq_position=4
pitch_keycenter=52
volume=6

<region>
sample=..\Samples\big_little_pluck_e3_f_rr3.wav
lokey=52
hikey=52
seq_position=3
pitch_keycenter=52
volume=6

<region>
sample=..\Samples\big_little_pluck_e3_f_rr2.wav
lokey=52
hikey=52
seq_position=2
pitch_keycenter=52
volume=6

<region>
sample=..\Samples\big_little_pluck_e3_f_rr1.wav
lokey=52
hikey=52
pitch_keycenter=52
volume=6

<region>
sample=..\Samples\big_little_pluck_f3_f_rr5.wav
lokey=53
hikey=53
seq_position=5
pitch_keycenter=53
volume=6

<region>
sample=..\Samples\big_little_pluck_f3_f_rr4.wav
lokey=53
hikey=53
seq_position=4
pitch_keycenter=53
volume=6

<region>
sample=..\Samples\big_little_pluck_f3_f_rr3.wav
lokey=53
hikey=53
seq_position=3
pitch_keycenter=53
volume=6

<region>
sample=..\Samples\big_little_pluck_f3_f_rr2.wav
lokey=53
hikey=53
seq_position=2
pitch_keycenter=53
volume=6

<region>
sample=..\Samples\big_little_pluck_f3_f_rr1.wav
lokey=53
hikey=53
pitch_keycenter=53
volume=6

<region>
sample=..\Samples\big_little_pluck_gb3_f_rr5.wav
lokey=54
hikey=54
seq_position=5
pitch_keycenter=54
volume=6

<region>
sample=..\Samples\big_little_pluck_gb3_f_rr4.wav
lokey=54
hikey=54
seq_position=4
pitch_keycenter=54
volume=6

<region>
sample=..\Samples\big_little_pluck_gb3_f_rr3.wav
lokey=54
hikey=54
seq_position=3
pitch_keycenter=54
volume=6

<region>
sample=..\Samples\big_little_pluck_gb3_f_rr2.wav
lokey=54
hikey=54
seq_position=2
pitch_keycenter=54
volume=6

<region>
sample=..\Samples\big_little_pluck_gb3_f_rr1.wav
lokey=54
hikey=54
pitch_keycenter=54
volume=6

<region>
sample=..\Samples\big_little_pluck_g3_f_rr5.wav
lokey=55
hikey=55
seq_position=5
pitch_keycenter=55
volume=6

<region>
sample=..\Samples\big_little_pluck_g3_f_rr4.wav
lokey=55
hikey=55
seq_position=4
pitch_keycenter=55
volume=6

<region>
sample=..\Samples\big_little_pluck_g3_f_rr3.wav
lokey=55
hikey=55
seq_position=3
pitch_keycenter=55
volume=6

<region>
sample=..\Samples\big_little_pluck_g3_f_rr2.wav
lokey=55
hikey=55
seq_position=2
pitch_keycenter=55
volume=6

<region>
sample=..\Samples\big_little_pluck_g3_f_rr1.wav
lokey=55
hikey=55
pitch_keycenter=55
volume=6

<region>
sample=..\Samples\big_little_pluck_ab3_f_rr5.wav
lokey=56
hikey=56
seq_position=5
pitch_keycenter=56
volume=6

<region>
sample=..\Samples\big_little_pluck_ab3_f_rr4.wav
lokey=56
hikey=56
seq_position=4
pitch_keycenter=56
volume=6

<region>
sample=..\Samples\big_little_pluck_ab3_f_rr3.wav
lokey=56
hikey=56
seq_position=3
pitch_keycenter=56
volume=6

<region>
sample=..\Samples\big_little_pluck_ab3_f_rr2.wav
lokey=56
hikey=56
seq_position=2
pitch_keycenter=56
volume=6

<region>
sample=..\Samples\big_little_pluck_ab3_f_rr1.wav
lokey=56
hikey=56
pitch_keycenter=56
volume=6

<region>
sample=..\Samples\big_little_pluck_a3_f_rr5.wav
lokey=57
hikey=57
seq_position=5
pitch_keycenter=57
volume=6

<region>
sample=..\Samples\big_little_pluck_a3_f_rr4.wav
lokey=57
hikey=57
seq_position=4
pitch_keycenter=57
volume=6

<region>
sample=..\Samples\big_little_pluck_a3_f_rr3.wav
lokey=57
hikey=57
seq_position=3
pitch_keycenter=57
volume=6

<region>
sample=..\Samples\big_little_pluck_a3_f_rr2.wav
lokey=57
hikey=57
seq_position=2
pitch_keycenter=57
volume=6

<region>
sample=..\Samples\big_little_pluck_a3_f_rr1.wav
lokey=57
hikey=57
pitch_keycenter=57
volume=6

<region>
sample=..\Samples\big_little_pluck_bb3_f_rr5.wav
lokey=58
hikey=58
seq_position=5
pitch_keycenter=58
volume=6

<region>
sample=..\Samples\big_little_pluck_bb3_f_rr4.wav
lokey=58
hikey=58
seq_position=4
pitch_keycenter=58
volume=6

<region>
sample=..\Samples\big_little_pluck_bb3_f_rr3.wav
lokey=58
hikey=58
seq_position=3
pitch_keycenter=58
volume=6

<region>
sample=..\Samples\big_little_pluck_bb3_f_rr2.wav
lokey=58
hikey=58
seq_position=2
pitch_keycenter=58
volume=6

<region>
sample=..\Samples\big_little_pluck_bb3_f_rr1.wav
lokey=58
hikey=58
pitch_keycenter=58
volume=6

<region>
sample=..\Samples\big_little_pluck_b3_f_rr5.wav
lokey=59
hikey=59
seq_position=5
pitch_keycenter=59
volume=6

<region>
sample=..\Samples\big_little_pluck_b3_f_rr4.wav
lokey=59
hikey=59
seq_position=4
pitch_keycenter=59
volume=6

<region>
sample=..\Samples\big_little_pluck_b3_f_rr3.wav
lokey=59
hikey=59
seq_position=3
pitch_keycenter=59
volume=6

<region>
sample=..\Samples\big_little_pluck_b3_f_rr2.wav
lokey=59
hikey=59
seq_position=2
pitch_keycenter=59
volume=6

<region>
sample=..\Samples\big_little_pluck_b3_f_rr1.wav
lokey=59
hikey=59
pitch_keycenter=59
volume=6

<region>
sample=..\Samples\big_little_pluck_c4_f_rr5.wav
lokey=60
hikey=60
seq_position=5
volume=6

<region>
sample=..\Samples\big_little_pluck_c4_f_rr4.wav
lokey=60
hikey=60
seq_position=4
volume=6

<region>
sample=..\Samples\big_little_pluck_c4_f_rr3.wav
lokey=60
hikey=60
seq_position=3
volume=6

<region>
sample=..\Samples\big_little_pluck_c4_f_rr2.wav
lokey=60
hikey=60
seq_position=2
volume=6

<region>
sample=..\Samples\big_little_pluck_c4_f_rr1.wav
lokey=60
hikey=60
volume=6

<region>
sample=..\Samples\big_little_pluck_db4_f_rr5.wav
lokey=61
hikey=61
seq_position=5
pitch_keycenter=61
volume=6

<region>
sample=..\Samples\big_little_pluck_db4_f_rr4.wav
lokey=61
hikey=61
seq_position=4
pitch_keycenter=61
volume=6

<region>
sample=..\Samples\big_little_pluck_db4_f_rr3.wav
lokey=61
hikey=61
seq_position=3
pitch_keycenter=61
volume=6

<region>
sample=..\Samples\big_little_pluck_db4_f_rr2.wav
lokey=61
hikey=61
seq_position=2
pitch_keycenter=61
volume=6

<region>
sample=..\Samples\big_little_pluck_db4_f_rr1.wav
lokey=61
hikey=61
pitch_keycenter=61
volume=6

<region>
sample=..\Samples\big_little_pluck_d4_f_rr5.wav
lokey=62
hikey=62
seq_position=5
pitch_keycenter=62
volume=4

<region>
sample=..\Samples\big_little_pluck_d4_f_rr4.wav
lokey=62
hikey=62
seq_position=4
pitch_keycenter=62
volume=4

<region>
sample=..\Samples\big_little_pluck_d4_f_rr3.wav
lokey=62
hikey=62
seq_position=3
pitch_keycenter=62
volume=4

<region>
sample=..\Samples\big_little_pluck_d4_f_rr2.wav
lokey=62
hikey=62
seq_position=2
pitch_keycenter=62
volume=4

<region>
sample=..\Samples\big_little_pluck_d4_f_rr1.wav
lokey=62
hikey=62
pitch_keycenter=62
volume=4

<region>
sample=..\Samples\big_little_pluck_eb4_f_rr5.wav
lokey=63
hikey=63
seq_position=5
pitch_keycenter=63
volume=4

<region>
sample=..\Samples\big_little_pluck_eb4_f_rr4.wav
lokey=63
hikey=63
seq_position=4
pitch_keycenter=63
volume=4

<region>
sample=..\Samples\big_little_pluck_eb4_f_rr3.wav
lokey=63
hikey=63
seq_position=3
pitch_keycenter=63
volume=4

<region>
sample=..\Samples\big_little_pluck_eb4_f_rr2.wav
lokey=63
hikey=63
seq_position=2
pitch_keycenter=63
volume=4

<region>
sample=..\Samples\big_little_pluck_eb4_f_rr1.wav
lokey=63
hikey=63
pitch_keycenter=63
volume=4

<region>
sample=..\Samples\big_little_pluck_e4_f_rr5.wav
lokey=64
hikey=64
seq_position=5
pitch_keycenter=64
volume=4

<region>
sample=..\Samples\big_little_pluck_e4_f_rr4.wav
lokey=64
hikey=64
seq_position=4
pitch_keycenter=64
volume=4

<region>
sample=..\Samples\big_little_pluck_e4_f_rr3.wav
lokey=64
hikey=64
seq_position=3
pitch_keycenter=64
volume=4

<region>
sample=..\Samples\big_little_pluck_e4_f_rr2.wav
lokey=64
hikey=64
seq_position=2
pitch_keycenter=64
volume=4

<region>
sample=..\Samples\big_little_pluck_e4_f_rr1.wav
lokey=64
hikey=64
pitch_keycenter=64
volume=4

<region>
sample=..\Samples\big_little_pluck_f4_f_rr5.wav
lokey=65
hikey=65
seq_position=5
pitch_keycenter=65
volume=4

<region>
sample=..\Samples\big_little_pluck_f4_f_rr4.wav
lokey=65
hikey=65
seq_position=4
pitch_keycenter=65
volume=4

<region>
sample=..\Samples\big_little_pluck_f4_f_rr3.wav
lokey=65
hikey=65
seq_position=3
pitch_keycenter=65
volume=4

<region>
sample=..\Samples\big_little_pluck_f4_f_rr2.wav
lokey=65
hikey=65
seq_position=2
pitch_keycenter=65
volume=4

<region>
sample=..\Samples\big_little_pluck_f4_f_rr1.wav
lokey=65
hikey=65
pitch_keycenter=65
volume=4

<region>
sample=..\Samples\big_little_pluck_gb4_f_rr5.wav
lokey=66
hikey=66
seq_position=5
pitch_keycenter=66
volume=4

<region>
sample=..\Samples\big_little_pluck_gb4_f_rr4.wav
lokey=66
hikey=66
seq_position=4
pitch_keycenter=66
volume=4

<region>
sample=..\Samples\big_little_pluck_gb4_f_rr3.wav
lokey=66
hikey=66
seq_position=3
pitch_keycenter=66
volume=4

<region>
sample=..\Samples\big_little_pluck_gb4_f_rr2.wav
lokey=66
hikey=66
seq_position=2
pitch_keycenter=66
volume=4

<region>
sample=..\Samples\big_little_pluck_gb4_f_rr1.wav
lokey=66
hikey=66
pitch_keycenter=66
volume=4

<region>
sample=..\Samples\big_little_pluck_g4_f_rr5.wav
lokey=67
hikey=67
seq_position=5
pitch_keycenter=67
volume=4

<region>
sample=..\Samples\big_little_pluck_g4_f_rr4.wav
lokey=67
hikey=67
seq_position=4
pitch_keycenter=67
volume=4

<region>
sample=..\Samples\big_little_pluck_g4_f_rr3.wav
lokey=67
hikey=67
seq_position=3
pitch_keycenter=67
volume=4

<region>
sample=..\Samples\big_little_pluck_g4_f_rr2.wav
lokey=67
hikey=67
seq_position=2
pitch_keycenter=67
volume=4

<region>
sample=..\Samples\big_little_pluck_g4_f_rr1.wav
lokey=67
hikey=67
pitch_keycenter=67
volume=4

<region>
sample=..\Samples\big_little_pluck_ab4_f_rr5.wav
lokey=68
hikey=68
seq_position=5
pitch_keycenter=68
volume=4

<region>
sample=..\Samples\big_little_pluck_ab4_f_rr4.wav
lokey=68
hikey=68
seq_position=4
pitch_keycenter=68
volume=4

<region>
sample=..\Samples\big_little_pluck_ab4_f_rr3.wav
lokey=68
hikey=68
seq_position=3
pitch_keycenter=68
volume=4

<region>
sample=..\Samples\big_little_pluck_ab4_f_rr2.wav
lokey=68
hikey=68
seq_position=2
pitch_keycenter=68
volume=4

<region>
sample=..\Samples\big_little_pluck_ab4_f_rr1.wav
lokey=68
hikey=68
pitch_keycenter=68
volume=4

<region>
sample=..\Samples\big_little_pluck_a4_f_rr5.wav
lokey=69
hikey=69
seq_position=5
pitch_keycenter=69
volume=4

<region>
sample=..\Samples\big_little_pluck_a4_f_rr4.wav
lokey=69
hikey=69
seq_position=4
pitch_keycenter=69
volume=4

<region>
sample=..\Samples\big_little_pluck_a4_f_rr3.wav
lokey=69
hikey=69
seq_position=3
pitch_keycenter=69
volume=4

<region>
sample=..\Samples\big_little_pluck_a4_f_rr2.wav
lokey=69
hikey=69
seq_position=2
pitch_keycenter=69
volume=4

<region>
sample=..\Samples\big_little_pluck_a4_f_rr1.wav
lokey=69
hikey=69
pitch_keycenter=69
volume=4

<region>
sample=..\Samples\big_little_pluck_bb4_f_rr5.wav
lokey=70
hikey=70
seq_position=5
pitch_keycenter=70
volume=4

<region>
sample=..\Samples\big_little_pluck_bb4_f_rr4.wav
lokey=70
hikey=70
seq_position=4
pitch_keycenter=70
volume=4

<region>
sample=..\Samples\big_little_pluck_bb4_f_rr3.wav
lokey=70
hikey=70
seq_position=3
pitch_keycenter=70
volume=4

<region>
sample=..\Samples\big_little_pluck_bb4_f_rr2.wav
lokey=70
hikey=70
seq_position=2
pitch_keycenter=70
volume=4

<region>
sample=..\Samples\big_little_pluck_bb4_f_rr1.wav
lokey=70
hikey=70
pitch_keycenter=70
volume=4

<region>
sample=..\Samples\big_little_pluck_b4_f_rr5.wav
lokey=71
hikey=71
seq_position=5
pitch_keycenter=71
volume=4

<region>
sample=..\Samples\big_little_pluck_b4_f_rr4.wav
lokey=71
hikey=71
seq_position=4
pitch_keycenter=71
volume=4

<region>
sample=..\Samples\big_little_pluck_b4_f_rr3.wav
lokey=71
hikey=71
seq_position=3
pitch_keycenter=71
volume=4

<region>
sample=..\Samples\big_little_pluck_b4_f_rr2.wav
lokey=71
hikey=71
seq_position=2
pitch_keycenter=71
volume=4

<region>
sample=..\Samples\big_little_pluck_b4_f_rr1.wav
lokey=71
hikey=71
pitch_keycenter=71
volume=4

<region>
sample=..\Samples\big_little_pluck_c5_f_rr5.wav
lokey=72
hikey=72
seq_position=5
pitch_keycenter=72
volume=4

<region>
sample=..\Samples\big_little_pluck_c5_f_rr4.wav
lokey=72
hikey=72
seq_position=4
pitch_keycenter=72
volume=4

<region>
sample=..\Samples\big_little_pluck_c5_f_rr3.wav
lokey=72
hikey=72
seq_position=3
pitch_keycenter=72
volume=4

<region>
sample=..\Samples\big_little_pluck_c5_f_rr2.wav
lokey=72
hikey=72
seq_position=2
pitch_keycenter=72
volume=4

<region>
sample=..\Samples\big_little_pluck_c5_f_rr1.wav
lokey=72
hikey=72
pitch_keycenter=72
volume=4

<region>
sample=..\Samples\big_little_pluck_db5_f_rr5.wav
lokey=73
hikey=73
seq_position=5
pitch_keycenter=73
volume=4

<region>
sample=..\Samples\big_little_pluck_db5_f_rr4.wav
lokey=73
hikey=73
seq_position=4
pitch_keycenter=73
volume=4

<region>
sample=..\Samples\big_little_pluck_db5_f_rr3.wav
lokey=73
hikey=73
seq_position=3
pitch_keycenter=73
volume=4

<region>
sample=..\Samples\big_little_pluck_db5_f_rr2.wav
lokey=73
hikey=73
seq_position=2
pitch_keycenter=73
volume=4

<region>
sample=..\Samples\big_little_pluck_db5_f_rr1.wav
lokey=73
hikey=73
pitch_keycenter=73
volume=4

<region>
sample=..\Samples\big_little_pluck_d5_f_rr5.wav
lokey=74
hikey=74
seq_position=5
pitch_keycenter=74
volume=4

<region>
sample=..\Samples\big_little_pluck_d5_f_rr4.wav
lokey=74
hikey=74
seq_position=4
pitch_keycenter=74
volume=4

<region>
sample=..\Samples\big_little_pluck_d5_f_rr3.wav
lokey=74
hikey=74
seq_position=3
pitch_keycenter=74
volume=4

<region>
sample=..\Samples\big_little_pluck_d5_f_rr2.wav
lokey=74
hikey=74
seq_position=2
pitch_keycenter=74
volume=4

<region>
sample=..\Samples\big_little_pluck_d5_f_rr1.wav
lokey=74
hikey=74
pitch_keycenter=74
volume=4

<region>
sample=..\Samples\big_little_pluck_eb5_f_rr5.wav
lokey=75
hikey=75
seq_position=5
pitch_keycenter=75
volume=4

<region>
sample=..\Samples\big_little_pluck_eb5_f_rr4.wav
lokey=75
hikey=75
seq_position=4
pitch_keycenter=75
volume=4

<region>
sample=..\Samples\big_little_pluck_eb5_f_rr3.wav
lokey=75
hikey=75
seq_position=3
pitch_keycenter=75
volume=4

<region>
sample=..\Samples\big_little_pluck_eb5_f_rr2.wav
lokey=75
hikey=75
seq_position=2
pitch_keycenter=75
volume=4

<region>
sample=..\Samples\big_little_pluck_eb5_f_rr1.wav
lokey=75
hikey=75
pitch_keycenter=75
volume=4

<region>
sample=..\Samples\big_little_pluck_e5_f_rr5.wav
lokey=76
hikey=76
seq_position=5
pitch_keycenter=76
volume=4

<region>
sample=..\Samples\big_little_pluck_e5_f_rr4.wav
lokey=76
hikey=76
seq_position=4
pitch_keycenter=76
volume=4

<region>
sample=..\Samples\big_little_pluck_e5_f_rr3.wav
lokey=76
hikey=76
seq_position=3
pitch_keycenter=76
volume=4

<region>
sample=..\Samples\big_little_pluck_e5_f_rr2.wav
lokey=76
hikey=76
seq_position=2
pitch_keycenter=76
volume=4

<region>
sample=..\Samples\big_little_pluck_e5_f_rr1.wav
lokey=76
hikey=76
pitch_keycenter=76
volume=4

<region>
sample=..\Samples\big_little_pluck_f5_f_rr5.wav
lokey=77
hikey=77
seq_position=5
pitch_keycenter=77
volume=4

<region>
sample=..\Samples\big_little_pluck_f5_f_rr4.wav
lokey=77
hikey=77
seq_position=4
pitch_keycenter=77
volume=4

<region>
sample=..\Samples\big_little_pluck_f5_f_rr3.wav
lokey=77
hikey=77
seq_position=3
pitch_keycenter=77
volume=4

<region>
sample=..\Samples\big_little_pluck_f5_f_rr2.wav
lokey=77
hikey=77
seq_position=2
pitch_keycenter=77
volume=4

<region>
sample=..\Samples\big_little_pluck_f5_f_rr1.wav
lokey=77
hikey=77
pitch_keycenter=77
volume=4

<region>
sample=..\Samples\big_little_pluck_gb5_f_rr5.wav
lokey=78
hikey=78
seq_position=5
pitch_keycenter=78
volume=4

<region>
sample=..\Samples\big_little_pluck_gb5_f_rr4.wav
lokey=78
hikey=78
seq_position=4
pitch_keycenter=78
volume=4

<region>
sample=..\Samples\big_little_pluck_gb5_f_rr3.wav
lokey=78
hikey=78
seq_position=3
pitch_keycenter=78
volume=4

<region>
sample=..\Samples\big_little_pluck_gb5_f_rr2.wav
lokey=78
hikey=78
seq_position=2
pitch_keycenter=78
volume=4

<region>
sample=..\Samples\big_little_pluck_gb5_f_rr1.wav
lokey=78
hikey=78
pitch_keycenter=78
volume=4
